<mxfile host="Electron" modified="2025-07-02T10:01:07.274Z" agent="Mozilla/5.0 (Windows NT 10.0; Win64; x64) AppleWebKit/537.36 (KHTML, like Gecko) draw.io/22.1.16 Chrome/120.0.6099.109 Electron/28.1.0 Safari/537.36" etag="OvQNR67WFUeBbtj8F7wX" version="22.1.16" type="device">
  <diagram name="Page-1" id="WhWWbTZU1SzVPbaLtEE2">
    <mxGraphModel dx="2367" dy="1370" grid="1" gridSize="10" guides="1" tooltips="1" connect="1" arrows="1" fold="1" page="1" pageScale="1" pageWidth="1169" pageHeight="827" math="0" shadow="0">
      <root>
        <mxCell id="0" />
        <mxCell id="1" parent="0" />
        <mxCell id="XwzmXmZPTEbntRjS80U2-12" style="edgeStyle=orthogonalEdgeStyle;rounded=0;orthogonalLoop=1;jettySize=auto;html=1;strokeWidth=2;sketch=1;curveFitting=1;jiggle=2;labelBackgroundColor=none;strokeColor=#B20000;fontColor=default;fillColor=#e51400;" parent="1" source="XwzmXmZPTEbntRjS80U2-3" target="XwzmXmZPTEbntRjS80U2-10" edge="1">
          <mxGeometry relative="1" as="geometry" />
        </mxCell>
        <mxCell id="XwzmXmZPTEbntRjS80U2-3" value="&lt;b&gt;USER INPUT&lt;/b&gt;" style="rounded=0;whiteSpace=wrap;html=1;sketch=1;curveFitting=1;jiggle=2;labelBackgroundColor=none;fillColor=#09555B;strokeColor=#BAC8D3;fontColor=#EEEEEE;" parent="1" vertex="1">
          <mxGeometry x="20" y="152.5" width="90" height="40" as="geometry" />
        </mxCell>
        <mxCell id="XwzmXmZPTEbntRjS80U2-11" style="edgeStyle=orthogonalEdgeStyle;rounded=0;orthogonalLoop=1;jettySize=auto;html=1;entryX=0;entryY=0.5;entryDx=0;entryDy=0;strokeWidth=2;sketch=1;curveFitting=1;jiggle=2;labelBackgroundColor=none;strokeColor=#B20000;fontColor=default;fillColor=#e51400;" parent="1" source="XwzmXmZPTEbntRjS80U2-4" target="XwzmXmZPTEbntRjS80U2-10" edge="1">
          <mxGeometry relative="1" as="geometry" />
        </mxCell>
        <mxCell id="XwzmXmZPTEbntRjS80U2-4" value="&lt;b&gt;HARDCODED MESSAGE&lt;/b&gt;" style="rounded=0;whiteSpace=wrap;html=1;sketch=1;curveFitting=1;jiggle=2;labelBackgroundColor=none;fillColor=#09555B;strokeColor=#BAC8D3;fontColor=#EEEEEE;" parent="1" vertex="1">
          <mxGeometry x="20" y="97.5" width="90" height="40" as="geometry" />
        </mxCell>
        <mxCell id="CkCthznzlvCeSbrIngi4-3" style="edgeStyle=orthogonalEdgeStyle;rounded=0;orthogonalLoop=1;jettySize=auto;html=1;entryX=0.5;entryY=0;entryDx=0;entryDy=0;strokeWidth=2;sketch=1;curveFitting=1;jiggle=2;labelBackgroundColor=none;strokeColor=#B20000;fontColor=default;fillColor=#e51400;" edge="1" parent="1" source="XwzmXmZPTEbntRjS80U2-5" target="XwzmXmZPTEbntRjS80U2-10">
          <mxGeometry relative="1" as="geometry" />
        </mxCell>
        <mxCell id="XwzmXmZPTEbntRjS80U2-5" value="&lt;b&gt;INIT SERIAL,&lt;br&gt;INIT I2C,&lt;br&gt;SET PINS,&lt;br&gt;INIT LCD&lt;br&gt;&lt;/b&gt;" style="rounded=1;whiteSpace=wrap;html=1;sketch=1;curveFitting=1;jiggle=2;labelBackgroundColor=none;fillColor=#09555B;strokeColor=#BAC8D3;fontColor=#EEEEEE;" parent="1" vertex="1">
          <mxGeometry x="170" y="15" width="100" height="65" as="geometry" />
        </mxCell>
        <mxCell id="XwzmXmZPTEbntRjS80U2-15" style="edgeStyle=orthogonalEdgeStyle;rounded=0;orthogonalLoop=1;jettySize=auto;html=1;strokeWidth=2;sketch=1;curveFitting=1;jiggle=2;labelBackgroundColor=none;strokeColor=#B20000;fontColor=default;fillColor=#e51400;" parent="1" source="XwzmXmZPTEbntRjS80U2-9" edge="1">
          <mxGeometry relative="1" as="geometry">
            <mxPoint x="80.00000000000011" y="280" as="targetPoint" />
          </mxGeometry>
        </mxCell>
        <mxCell id="XwzmXmZPTEbntRjS80U2-16" value="&lt;b&gt;USER INPUT?&lt;/b&gt;" style="edgeLabel;html=1;align=center;verticalAlign=middle;resizable=0;points=[];sketch=1;curveFitting=1;jiggle=2;labelBackgroundColor=none;fontColor=#EEEEEE;" parent="XwzmXmZPTEbntRjS80U2-15" vertex="1" connectable="0">
          <mxGeometry x="-0.2025" y="1" relative="1" as="geometry">
            <mxPoint x="9" y="-1" as="offset" />
          </mxGeometry>
        </mxCell>
        <mxCell id="CkCthznzlvCeSbrIngi4-1" style="edgeStyle=orthogonalEdgeStyle;rounded=0;orthogonalLoop=1;jettySize=auto;html=1;strokeWidth=2;exitX=1;exitY=0.5;exitDx=0;exitDy=0;sketch=1;curveFitting=1;jiggle=2;labelBackgroundColor=none;strokeColor=#B20000;fontColor=default;fillColor=#e51400;" edge="1" parent="1" source="XwzmXmZPTEbntRjS80U2-9" target="CkCthznzlvCeSbrIngi4-4">
          <mxGeometry relative="1" as="geometry">
            <mxPoint x="302.5" y="290" as="targetPoint" />
            <mxPoint x="247.5" y="240" as="sourcePoint" />
            <Array as="points">
              <mxPoint x="275" y="220" />
            </Array>
          </mxGeometry>
        </mxCell>
        <mxCell id="CkCthznzlvCeSbrIngi4-2" value="&lt;b&gt;HARDCODED MSG?&lt;/b&gt;" style="edgeLabel;html=1;align=center;verticalAlign=middle;resizable=0;points=[];sketch=1;curveFitting=1;jiggle=2;labelBackgroundColor=none;fontColor=#EEEEEE;" vertex="1" connectable="0" parent="CkCthznzlvCeSbrIngi4-1">
          <mxGeometry x="-0.0085" relative="1" as="geometry">
            <mxPoint y="3" as="offset" />
          </mxGeometry>
        </mxCell>
        <mxCell id="XwzmXmZPTEbntRjS80U2-9" value="&lt;b&gt;MSG TYPE&lt;/b&gt;" style="rhombus;whiteSpace=wrap;html=1;sketch=1;curveFitting=1;jiggle=2;labelBackgroundColor=none;fillColor=#09555B;strokeColor=#BAC8D3;fontColor=#EEEEEE;" parent="1" vertex="1">
          <mxGeometry x="170" y="190" width="100" height="60" as="geometry" />
        </mxCell>
        <mxCell id="XwzmXmZPTEbntRjS80U2-14" style="edgeStyle=orthogonalEdgeStyle;rounded=0;orthogonalLoop=1;jettySize=auto;html=1;entryX=0.5;entryY=0;entryDx=0;entryDy=0;strokeWidth=2;sketch=1;curveFitting=1;jiggle=2;labelBackgroundColor=none;strokeColor=#B20000;fontColor=default;fillColor=#e51400;" parent="1" source="XwzmXmZPTEbntRjS80U2-10" target="XwzmXmZPTEbntRjS80U2-9" edge="1">
          <mxGeometry relative="1" as="geometry" />
        </mxCell>
        <mxCell id="XwzmXmZPTEbntRjS80U2-10" value="" style="ellipse;whiteSpace=wrap;html=1;aspect=fixed;sketch=1;curveFitting=1;jiggle=2;labelBackgroundColor=none;fillColor=#09555B;strokeColor=#BAC8D3;fontColor=#EEEEEE;" parent="1" vertex="1">
          <mxGeometry x="205" y="130" width="30" height="30" as="geometry" />
        </mxCell>
        <mxCell id="XwzmXmZPTEbntRjS80U2-19" style="edgeStyle=orthogonalEdgeStyle;rounded=0;orthogonalLoop=1;jettySize=auto;html=1;exitX=1;exitY=0.5;exitDx=0;exitDy=0;strokeWidth=2;sketch=1;curveFitting=1;jiggle=2;labelBackgroundColor=none;strokeColor=#B20000;fontColor=default;fillColor=#e51400;" parent="1" source="XwzmXmZPTEbntRjS80U2-17" target="XwzmXmZPTEbntRjS80U2-18" edge="1">
          <mxGeometry relative="1" as="geometry" />
        </mxCell>
        <mxCell id="XwzmXmZPTEbntRjS80U2-20" value="&lt;b&gt;YES?&lt;/b&gt;" style="edgeLabel;html=1;align=center;verticalAlign=middle;resizable=0;points=[];sketch=1;curveFitting=1;jiggle=2;labelBackgroundColor=none;fontColor=#EEEEEE;" parent="XwzmXmZPTEbntRjS80U2-19" vertex="1" connectable="0">
          <mxGeometry x="-0.4444" y="2" relative="1" as="geometry">
            <mxPoint as="offset" />
          </mxGeometry>
        </mxCell>
        <mxCell id="XwzmXmZPTEbntRjS80U2-17" value="&lt;b&gt;&lt;font style=&quot;font-size: 9px;&quot;&gt;Serial available?&lt;/font&gt;&lt;/b&gt;" style="rhombus;whiteSpace=wrap;html=1;sketch=1;curveFitting=1;jiggle=2;labelBackgroundColor=none;fillColor=#09555B;strokeColor=#BAC8D3;fontColor=#EEEEEE;" parent="1" vertex="1">
          <mxGeometry x="30" y="280" width="100" height="40" as="geometry" />
        </mxCell>
        <mxCell id="XwzmXmZPTEbntRjS80U2-24" style="edgeStyle=orthogonalEdgeStyle;rounded=0;orthogonalLoop=1;jettySize=auto;html=1;strokeWidth=2;sketch=1;curveFitting=1;jiggle=2;labelBackgroundColor=none;strokeColor=#B20000;fontColor=default;fillColor=#e51400;" parent="1" source="XwzmXmZPTEbntRjS80U2-18" edge="1">
          <mxGeometry relative="1" as="geometry">
            <mxPoint x="80" y="410" as="targetPoint" />
          </mxGeometry>
        </mxCell>
        <mxCell id="XwzmXmZPTEbntRjS80U2-18" value="&lt;b&gt;Read str until &#39;\n&#39;&lt;/b&gt;" style="rounded=1;whiteSpace=wrap;html=1;sketch=1;curveFitting=1;jiggle=2;labelBackgroundColor=none;fillColor=#09555B;strokeColor=#BAC8D3;fontColor=#EEEEEE;" parent="1" vertex="1">
          <mxGeometry x="20" y="360" width="120" height="30" as="geometry" />
        </mxCell>
        <mxCell id="XwzmXmZPTEbntRjS80U2-26" style="edgeStyle=orthogonalEdgeStyle;rounded=0;orthogonalLoop=1;jettySize=auto;html=1;exitX=0.5;exitY=1;exitDx=0;exitDy=0;entryX=0.5;entryY=0;entryDx=0;entryDy=0;strokeWidth=2;sketch=1;curveFitting=1;jiggle=2;labelBackgroundColor=none;strokeColor=#B20000;fontColor=default;fillColor=#e51400;" parent="1" source="XwzmXmZPTEbntRjS80U2-21" target="XwzmXmZPTEbntRjS80U2-22" edge="1">
          <mxGeometry relative="1" as="geometry" />
        </mxCell>
        <mxCell id="XwzmXmZPTEbntRjS80U2-21" value="&lt;b&gt;Trim spaces&lt;/b&gt;" style="rounded=1;whiteSpace=wrap;html=1;sketch=1;curveFitting=1;jiggle=2;labelBackgroundColor=none;fillColor=#09555B;strokeColor=#BAC8D3;fontColor=#EEEEEE;" parent="1" vertex="1">
          <mxGeometry x="20" y="414" width="120" height="30" as="geometry" />
        </mxCell>
        <mxCell id="XwzmXmZPTEbntRjS80U2-28" style="edgeStyle=orthogonalEdgeStyle;rounded=0;orthogonalLoop=1;jettySize=auto;html=1;exitX=1;exitY=0.25;exitDx=0;exitDy=0;entryX=0.5;entryY=0;entryDx=0;entryDy=0;strokeWidth=2;sketch=1;curveFitting=1;jiggle=2;labelBackgroundColor=none;strokeColor=#B20000;fontColor=default;fillColor=#e51400;" parent="1" source="XwzmXmZPTEbntRjS80U2-22" target="XwzmXmZPTEbntRjS80U2-27" edge="1">
          <mxGeometry relative="1" as="geometry">
            <Array as="points">
              <mxPoint x="150" y="478" />
            </Array>
          </mxGeometry>
        </mxCell>
        <mxCell id="XwzmXmZPTEbntRjS80U2-22" value="&lt;b&gt;Conv to char&lt;/b&gt;" style="rounded=1;whiteSpace=wrap;html=1;sketch=1;curveFitting=1;jiggle=2;labelBackgroundColor=none;fillColor=#09555B;strokeColor=#BAC8D3;fontColor=#EEEEEE;" parent="1" vertex="1">
          <mxGeometry x="20" y="470" width="120" height="30" as="geometry" />
        </mxCell>
        <mxCell id="XwzmXmZPTEbntRjS80U2-32" style="edgeStyle=orthogonalEdgeStyle;rounded=0;orthogonalLoop=1;jettySize=auto;html=1;entryX=0.5;entryY=0;entryDx=0;entryDy=0;strokeWidth=2;exitX=0.009;exitY=0.572;exitDx=0;exitDy=0;exitPerimeter=0;sketch=1;curveFitting=1;jiggle=2;labelBackgroundColor=none;strokeColor=#B20000;fontColor=default;fillColor=#e51400;" parent="1" source="XwzmXmZPTEbntRjS80U2-27" target="XwzmXmZPTEbntRjS80U2-29" edge="1">
          <mxGeometry relative="1" as="geometry">
            <mxPoint x="120" y="600" as="sourcePoint" />
            <mxPoint x="30" y="660" as="targetPoint" />
            <Array as="points">
              <mxPoint x="121" y="540" />
              <mxPoint x="60" y="540" />
            </Array>
          </mxGeometry>
        </mxCell>
        <mxCell id="XwzmXmZPTEbntRjS80U2-36" value="&lt;b&gt;NO&lt;/b&gt;" style="edgeLabel;html=1;align=center;verticalAlign=middle;resizable=0;points=[];sketch=1;curveFitting=1;jiggle=2;labelBackgroundColor=none;fontColor=#EEEEEE;" parent="XwzmXmZPTEbntRjS80U2-32" vertex="1" connectable="0">
          <mxGeometry x="-0.0721" relative="1" as="geometry">
            <mxPoint as="offset" />
          </mxGeometry>
        </mxCell>
        <mxCell id="XwzmXmZPTEbntRjS80U2-38" style="edgeStyle=orthogonalEdgeStyle;rounded=0;orthogonalLoop=1;jettySize=auto;html=1;entryX=0.5;entryY=0;entryDx=0;entryDy=0;strokeWidth=2;sketch=1;curveFitting=1;jiggle=2;labelBackgroundColor=none;strokeColor=#B20000;fontColor=default;fillColor=#e51400;" parent="1" source="XwzmXmZPTEbntRjS80U2-27" target="XwzmXmZPTEbntRjS80U2-37" edge="1">
          <mxGeometry relative="1" as="geometry">
            <Array as="points">
              <mxPoint x="225" y="540" />
            </Array>
          </mxGeometry>
        </mxCell>
        <mxCell id="XwzmXmZPTEbntRjS80U2-40" value="&lt;b&gt;YES&lt;/b&gt;" style="edgeLabel;html=1;align=center;verticalAlign=middle;resizable=0;points=[];sketch=1;curveFitting=1;jiggle=2;labelBackgroundColor=none;fontColor=#EEEEEE;" parent="XwzmXmZPTEbntRjS80U2-38" vertex="1" connectable="0">
          <mxGeometry x="0.2269" relative="1" as="geometry">
            <mxPoint as="offset" />
          </mxGeometry>
        </mxCell>
        <mxCell id="XwzmXmZPTEbntRjS80U2-27" value="&lt;b&gt;&lt;font style=&quot;font-size: 9px;&quot;&gt;Under 16 chars ?&lt;/font&gt;&lt;/b&gt;" style="rhombus;whiteSpace=wrap;html=1;sketch=1;curveFitting=1;jiggle=2;labelBackgroundColor=none;fillColor=#09555B;strokeColor=#BAC8D3;fontColor=#EEEEEE;" parent="1" vertex="1">
          <mxGeometry x="100" y="520" width="100" height="40" as="geometry" />
        </mxCell>
        <mxCell id="XwzmXmZPTEbntRjS80U2-35" style="edgeStyle=orthogonalEdgeStyle;rounded=0;orthogonalLoop=1;jettySize=auto;html=1;entryX=0.5;entryY=0;entryDx=0;entryDy=0;strokeWidth=2;sketch=1;curveFitting=1;jiggle=2;labelBackgroundColor=none;strokeColor=#B20000;fontColor=default;fillColor=#e51400;" parent="1" source="XwzmXmZPTEbntRjS80U2-29" target="XwzmXmZPTEbntRjS80U2-31" edge="1">
          <mxGeometry relative="1" as="geometry">
            <Array as="points">
              <mxPoint x="60" y="740" />
              <mxPoint x="170" y="740" />
            </Array>
          </mxGeometry>
        </mxCell>
        <mxCell id="XwzmXmZPTEbntRjS80U2-29" value="&lt;b&gt;REFUSE TX&lt;/b&gt;" style="rounded=1;whiteSpace=wrap;html=1;sketch=1;curveFitting=1;jiggle=2;labelBackgroundColor=none;fillColor=#09555B;strokeColor=#BAC8D3;fontColor=#EEEEEE;" parent="1" vertex="1">
          <mxGeometry x="20" y="680" width="80" height="30" as="geometry" />
        </mxCell>
        <mxCell id="XwzmXmZPTEbntRjS80U2-34" style="edgeStyle=orthogonalEdgeStyle;rounded=0;orthogonalLoop=1;jettySize=auto;html=1;strokeWidth=2;sketch=1;curveFitting=1;jiggle=2;labelBackgroundColor=none;strokeColor=#B20000;fontColor=default;fillColor=#e51400;" parent="1" source="XwzmXmZPTEbntRjS80U2-30" target="XwzmXmZPTEbntRjS80U2-31" edge="1">
          <mxGeometry relative="1" as="geometry" />
        </mxCell>
        <mxCell id="XwzmXmZPTEbntRjS80U2-30" value="&lt;b&gt;SEND DATA&lt;/b&gt;" style="rounded=1;whiteSpace=wrap;html=1;sketch=1;curveFitting=1;jiggle=2;labelBackgroundColor=none;fillColor=#09555B;strokeColor=#BAC8D3;fontColor=#EEEEEE;" parent="1" vertex="1">
          <mxGeometry x="180" y="680" width="90" height="30" as="geometry" />
        </mxCell>
        <mxCell id="XwzmXmZPTEbntRjS80U2-31" value="&lt;b&gt;REFRESH LCD&lt;/b&gt;" style="rounded=1;whiteSpace=wrap;html=1;sketch=1;curveFitting=1;jiggle=2;labelBackgroundColor=none;fillColor=#09555B;strokeColor=#BAC8D3;fontColor=#EEEEEE;" parent="1" vertex="1">
          <mxGeometry x="110" y="770" width="120" height="30" as="geometry" />
        </mxCell>
        <mxCell id="XwzmXmZPTEbntRjS80U2-39" style="edgeStyle=orthogonalEdgeStyle;rounded=0;orthogonalLoop=1;jettySize=auto;html=1;entryX=0.5;entryY=0;entryDx=0;entryDy=0;strokeWidth=2;sketch=1;curveFitting=1;jiggle=2;labelBackgroundColor=none;strokeColor=#B20000;fontColor=default;fillColor=#e51400;" parent="1" source="XwzmXmZPTEbntRjS80U2-37" target="XwzmXmZPTEbntRjS80U2-30" edge="1">
          <mxGeometry relative="1" as="geometry" />
        </mxCell>
        <mxCell id="XwzmXmZPTEbntRjS80U2-37" value="&lt;b&gt;UPDATE LCD&lt;/b&gt;" style="rounded=1;whiteSpace=wrap;html=1;sketch=1;curveFitting=1;jiggle=2;labelBackgroundColor=none;fillColor=#09555B;strokeColor=#BAC8D3;fontColor=#EEEEEE;" parent="1" vertex="1">
          <mxGeometry x="180" y="610" width="90" height="30" as="geometry" />
        </mxCell>
        <mxCell id="CkCthznzlvCeSbrIngi4-4" value="&lt;b&gt;SEND DATA&lt;/b&gt;" style="rounded=1;whiteSpace=wrap;html=1;sketch=1;curveFitting=1;jiggle=2;labelBackgroundColor=none;fillColor=#09555B;strokeColor=#BAC8D3;fontColor=#EEEEEE;" vertex="1" parent="1">
          <mxGeometry x="230" y="300" width="90" height="30" as="geometry" />
        </mxCell>
        <mxCell id="CkCthznzlvCeSbrIngi4-5" value="" style="shape=note;whiteSpace=wrap;html=1;backgroundOutline=1;darkOpacity=0.05;sketch=1;curveFitting=1;jiggle=2;labelBackgroundColor=none;fillColor=#09555B;strokeColor=#BAC8D3;fontColor=#EEEEEE;" vertex="1" parent="1">
          <mxGeometry x="400" y="120" width="340" height="370" as="geometry" />
        </mxCell>
        <mxCell id="CkCthznzlvCeSbrIngi4-6" value="" style="endArrow=classic;html=1;rounded=0;exitX=0;exitY=0.5;exitDx=0;exitDy=0;exitPerimeter=0;entryX=1;entryY=0.5;entryDx=0;entryDy=0;dashed=1;strokeWidth=2;sketch=1;curveFitting=1;jiggle=2;labelBackgroundColor=none;strokeColor=#B20000;fontColor=default;fillColor=#e51400;" edge="1" parent="1" source="CkCthznzlvCeSbrIngi4-5" target="CkCthznzlvCeSbrIngi4-4">
          <mxGeometry width="50" height="50" relative="1" as="geometry">
            <mxPoint x="410" y="380" as="sourcePoint" />
            <mxPoint x="460" y="330" as="targetPoint" />
          </mxGeometry>
        </mxCell>
        <mxCell id="CkCthznzlvCeSbrIngi4-7" value="" style="endArrow=classic;html=1;rounded=0;exitX=0;exitY=0.5;exitDx=0;exitDy=0;exitPerimeter=0;entryX=1;entryY=0;entryDx=0;entryDy=0;dashed=1;strokeWidth=2;sketch=1;curveFitting=1;jiggle=2;labelBackgroundColor=none;strokeColor=#B20000;fontColor=default;fillColor=#e51400;" edge="1" parent="1" source="CkCthznzlvCeSbrIngi4-5" target="XwzmXmZPTEbntRjS80U2-30">
          <mxGeometry width="50" height="50" relative="1" as="geometry">
            <mxPoint x="410" y="380" as="sourcePoint" />
            <mxPoint x="320" y="550" as="targetPoint" />
          </mxGeometry>
        </mxCell>
        <mxCell id="CkCthznzlvCeSbrIngi4-8" value="&lt;b&gt;&lt;i style=&quot;background-color: rgb(0, 140, 0);&quot;&gt;for bytes in msg length&lt;/i&gt;&lt;/b&gt;" style="rounded=1;whiteSpace=wrap;html=1;verticalAlign=top;sketch=1;curveFitting=1;jiggle=2;labelBackgroundColor=none;fillColor=#09555B;strokeColor=#BAC8D3;fontColor=#EEEEEE;" vertex="1" parent="1">
          <mxGeometry x="500" y="160" width="220" height="280" as="geometry" />
        </mxCell>
        <mxCell id="CkCthznzlvCeSbrIngi4-12" style="edgeStyle=orthogonalEdgeStyle;rounded=0;orthogonalLoop=1;jettySize=auto;html=1;entryX=0.5;entryY=0;entryDx=0;entryDy=0;strokeWidth=2;sketch=1;curveFitting=1;jiggle=2;labelBackgroundColor=none;strokeColor=#B20000;fontColor=default;fillColor=#e51400;" edge="1" parent="1" source="CkCthznzlvCeSbrIngi4-10" target="CkCthznzlvCeSbrIngi4-11">
          <mxGeometry relative="1" as="geometry" />
        </mxCell>
        <mxCell id="CkCthznzlvCeSbrIngi4-10" value="&lt;b&gt;SELCT BYTE&lt;/b&gt;" style="rounded=1;whiteSpace=wrap;html=1;sketch=1;curveFitting=1;jiggle=2;labelBackgroundColor=none;fillColor=#09555B;strokeColor=#BAC8D3;fontColor=#EEEEEE;" vertex="1" parent="1">
          <mxGeometry x="520" y="196.75" width="175" height="30" as="geometry" />
        </mxCell>
        <mxCell id="CkCthznzlvCeSbrIngi4-14" style="edgeStyle=orthogonalEdgeStyle;rounded=0;orthogonalLoop=1;jettySize=auto;html=1;exitX=0.5;exitY=1;exitDx=0;exitDy=0;strokeWidth=2;sketch=1;curveFitting=1;jiggle=2;labelBackgroundColor=none;strokeColor=#B20000;fontColor=default;fillColor=#e51400;" edge="1" parent="1" source="CkCthznzlvCeSbrIngi4-11" target="CkCthznzlvCeSbrIngi4-13">
          <mxGeometry relative="1" as="geometry" />
        </mxCell>
        <mxCell id="CkCthznzlvCeSbrIngi4-11" value="&lt;b&gt;UPDATE BYTE ON LCD&lt;/b&gt;" style="rounded=1;whiteSpace=wrap;html=1;sketch=1;curveFitting=1;jiggle=2;labelBackgroundColor=none;fillColor=#09555B;strokeColor=#BAC8D3;fontColor=#EEEEEE;" vertex="1" parent="1">
          <mxGeometry x="520" y="250" width="175" height="30" as="geometry" />
        </mxCell>
        <mxCell id="CkCthznzlvCeSbrIngi4-17" style="edgeStyle=orthogonalEdgeStyle;rounded=0;orthogonalLoop=1;jettySize=auto;html=1;exitX=0.5;exitY=1;exitDx=0;exitDy=0;entryX=0.5;entryY=0;entryDx=0;entryDy=0;strokeWidth=2;sketch=1;curveFitting=1;jiggle=2;labelBackgroundColor=none;strokeColor=#B20000;fontColor=default;fillColor=#e51400;" edge="1" parent="1" source="CkCthznzlvCeSbrIngi4-13" target="CkCthznzlvCeSbrIngi4-15">
          <mxGeometry relative="1" as="geometry" />
        </mxCell>
        <mxCell id="CkCthznzlvCeSbrIngi4-13" value="&lt;b&gt;SEND BYTE&lt;/b&gt;" style="rounded=1;whiteSpace=wrap;html=1;sketch=1;curveFitting=1;jiggle=2;labelBackgroundColor=none;fillColor=#09555B;strokeColor=#BAC8D3;fontColor=#EEEEEE;" vertex="1" parent="1">
          <mxGeometry x="520" y="310" width="175" height="30" as="geometry" />
        </mxCell>
        <mxCell id="CkCthznzlvCeSbrIngi4-15" value="&lt;b&gt;STOP TX&lt;/b&gt;" style="rounded=1;whiteSpace=wrap;html=1;sketch=1;curveFitting=1;jiggle=2;labelBackgroundColor=none;fillColor=#09555B;strokeColor=#BAC8D3;fontColor=#EEEEEE;" vertex="1" parent="1">
          <mxGeometry x="520" y="370" width="175" height="30" as="geometry" />
        </mxCell>
        <mxCell id="CkCthznzlvCeSbrIngi4-18" value="" style="shape=note;whiteSpace=wrap;html=1;backgroundOutline=1;darkOpacity=0.05;sketch=1;curveFitting=1;jiggle=2;labelBackgroundColor=none;fillColor=#09555B;strokeColor=#BAC8D3;fontColor=#EEEEEE;" vertex="1" parent="1">
          <mxGeometry x="810" y="120" width="340" height="370" as="geometry" />
        </mxCell>
        <mxCell id="CkCthznzlvCeSbrIngi4-19" value="&lt;b&gt;&lt;i style=&quot;background-color: rgb(0, 140, 0);&quot;&gt;for bits in byte length&lt;/i&gt;&lt;/b&gt;" style="rounded=1;whiteSpace=wrap;html=1;verticalAlign=top;sketch=1;curveFitting=1;jiggle=2;labelBackgroundColor=none;fillColor=#09555B;strokeColor=#BAC8D3;fontColor=#EEEEEE;" vertex="1" parent="1">
          <mxGeometry x="940" y="150" width="190" height="310" as="geometry" />
        </mxCell>
        <mxCell id="CkCthznzlvCeSbrIngi4-22" value="" style="curved=1;endArrow=classic;html=1;rounded=0;exitX=0.5;exitY=1;exitDx=0;exitDy=0;entryX=0.5;entryY=0;entryDx=0;entryDy=0;strokeWidth=2;sketch=1;curveFitting=1;jiggle=2;labelBackgroundColor=none;strokeColor=#B20000;fontColor=default;fillColor=#e51400;" edge="1" parent="1" source="CkCthznzlvCeSbrIngi4-8" target="CkCthznzlvCeSbrIngi4-8">
          <mxGeometry width="50" height="50" relative="1" as="geometry">
            <mxPoint x="610" y="350" as="sourcePoint" />
            <mxPoint x="660" y="300" as="targetPoint" />
            <Array as="points">
              <mxPoint x="440" y="530" />
              <mxPoint x="430" y="70" />
            </Array>
          </mxGeometry>
        </mxCell>
        <mxCell id="CkCthznzlvCeSbrIngi4-23" value="" style="endArrow=classic;html=1;rounded=0;sketch=1;hachureGap=4;jiggle=2;curveFitting=1;fontFamily=Architects Daughter;fontSource=https%3A%2F%2Ffonts.googleapis.com%2Fcss%3Ffamily%3DArchitects%2BDaughter;fontSize=16;entryX=1;entryY=0.5;entryDx=0;entryDy=0;exitX=0;exitY=0.5;exitDx=0;exitDy=0;dashed=1;strokeWidth=2;labelBackgroundColor=none;strokeColor=#B20000;fontColor=default;fillColor=#e51400;" edge="1" parent="1" source="CkCthznzlvCeSbrIngi4-19" target="CkCthznzlvCeSbrIngi4-13">
          <mxGeometry width="50" height="50" relative="1" as="geometry">
            <mxPoint x="710" y="300" as="sourcePoint" />
            <mxPoint x="760" y="250" as="targetPoint" />
          </mxGeometry>
        </mxCell>
        <mxCell id="CkCthznzlvCeSbrIngi4-26" style="edgeStyle=orthogonalEdgeStyle;rounded=0;sketch=1;hachureGap=4;jiggle=2;curveFitting=1;orthogonalLoop=1;jettySize=auto;html=1;entryX=0.5;entryY=0;entryDx=0;entryDy=0;fontFamily=Architects Daughter;fontSource=https%3A%2F%2Ffonts.googleapis.com%2Fcss%3Ffamily%3DArchitects%2BDaughter;fontSize=16;strokeWidth=2;labelBackgroundColor=none;strokeColor=#B20000;fontColor=default;fillColor=#e51400;" edge="1" parent="1" source="CkCthznzlvCeSbrIngi4-24" target="CkCthznzlvCeSbrIngi4-25">
          <mxGeometry relative="1" as="geometry" />
        </mxCell>
        <mxCell id="CkCthznzlvCeSbrIngi4-24" value="&lt;b&gt;Extract bit&amp;nbsp;&lt;/b&gt;" style="rounded=1;whiteSpace=wrap;html=1;sketch=1;curveFitting=1;jiggle=2;labelBackgroundColor=none;fillColor=#09555B;strokeColor=#BAC8D3;fontColor=#EEEEEE;" vertex="1" parent="1">
          <mxGeometry x="947.5" y="190" width="175" height="30" as="geometry" />
        </mxCell>
        <mxCell id="CkCthznzlvCeSbrIngi4-32" style="edgeStyle=orthogonalEdgeStyle;rounded=0;sketch=1;hachureGap=4;jiggle=2;curveFitting=1;orthogonalLoop=1;jettySize=auto;html=1;exitX=0.5;exitY=1;exitDx=0;exitDy=0;entryX=0.5;entryY=0;entryDx=0;entryDy=0;fontFamily=Architects Daughter;fontSource=https%3A%2F%2Ffonts.googleapis.com%2Fcss%3Ffamily%3DArchitects%2BDaughter;fontSize=16;strokeWidth=2;labelBackgroundColor=none;strokeColor=#B20000;fontColor=default;fillColor=#e51400;" edge="1" parent="1" source="CkCthznzlvCeSbrIngi4-25" target="CkCthznzlvCeSbrIngi4-28">
          <mxGeometry relative="1" as="geometry" />
        </mxCell>
        <mxCell id="CkCthznzlvCeSbrIngi4-25" value="&lt;b&gt;Write bit&lt;/b&gt;" style="rounded=1;whiteSpace=wrap;html=1;sketch=1;curveFitting=1;jiggle=2;labelBackgroundColor=none;fillColor=#09555B;strokeColor=#BAC8D3;fontColor=#EEEEEE;" vertex="1" parent="1">
          <mxGeometry x="947.5" y="240" width="175" height="30" as="geometry" />
        </mxCell>
        <mxCell id="CkCthznzlvCeSbrIngi4-33" style="edgeStyle=orthogonalEdgeStyle;rounded=0;sketch=1;hachureGap=4;jiggle=2;curveFitting=1;orthogonalLoop=1;jettySize=auto;html=1;exitX=0.5;exitY=1;exitDx=0;exitDy=0;entryX=0.5;entryY=0;entryDx=0;entryDy=0;fontFamily=Architects Daughter;fontSource=https%3A%2F%2Ffonts.googleapis.com%2Fcss%3Ffamily%3DArchitects%2BDaughter;fontSize=16;strokeWidth=2;labelBackgroundColor=none;strokeColor=#B20000;fontColor=default;fillColor=#e51400;" edge="1" parent="1" source="CkCthznzlvCeSbrIngi4-28" target="CkCthznzlvCeSbrIngi4-29">
          <mxGeometry relative="1" as="geometry" />
        </mxCell>
        <mxCell id="CkCthznzlvCeSbrIngi4-28" value="&lt;b&gt;Send clk low pulse&lt;/b&gt;" style="rounded=1;whiteSpace=wrap;html=1;sketch=1;curveFitting=1;jiggle=2;labelBackgroundColor=none;fillColor=#09555B;strokeColor=#BAC8D3;fontColor=#EEEEEE;" vertex="1" parent="1">
          <mxGeometry x="947.5" y="290" width="175" height="30" as="geometry" />
        </mxCell>
        <mxCell id="CkCthznzlvCeSbrIngi4-29" value="&lt;b&gt;Write bit on LCD&lt;/b&gt;" style="rounded=1;whiteSpace=wrap;html=1;sketch=1;curveFitting=1;jiggle=2;labelBackgroundColor=none;fillColor=#09555B;strokeColor=#BAC8D3;fontColor=#EEEEEE;" vertex="1" parent="1">
          <mxGeometry x="947.5" y="350" width="175" height="30" as="geometry" />
        </mxCell>
        <mxCell id="CkCthznzlvCeSbrIngi4-31" value="&lt;b&gt;Send clk high pulse&lt;/b&gt;" style="rounded=1;whiteSpace=wrap;html=1;sketch=1;curveFitting=1;jiggle=2;labelBackgroundColor=none;fillColor=#09555B;strokeColor=#BAC8D3;fontColor=#EEEEEE;" vertex="1" parent="1">
          <mxGeometry x="947.5" y="410" width="175" height="30" as="geometry" />
        </mxCell>
        <mxCell id="CkCthznzlvCeSbrIngi4-34" style="edgeStyle=orthogonalEdgeStyle;rounded=0;sketch=1;hachureGap=4;jiggle=2;curveFitting=1;orthogonalLoop=1;jettySize=auto;html=1;exitX=0.5;exitY=1;exitDx=0;exitDy=0;entryX=0.5;entryY=0.072;entryDx=0;entryDy=0;entryPerimeter=0;fontFamily=Architects Daughter;fontSource=https%3A%2F%2Ffonts.googleapis.com%2Fcss%3Ffamily%3DArchitects%2BDaughter;fontSize=16;strokeWidth=2;labelBackgroundColor=none;strokeColor=#B20000;fontColor=default;fillColor=#e51400;" edge="1" parent="1" source="CkCthznzlvCeSbrIngi4-29" target="CkCthznzlvCeSbrIngi4-31">
          <mxGeometry relative="1" as="geometry" />
        </mxCell>
        <mxCell id="CkCthznzlvCeSbrIngi4-35" value="" style="curved=1;endArrow=classic;html=1;rounded=0;sketch=1;hachureGap=4;jiggle=2;curveFitting=1;fontFamily=Architects Daughter;fontSource=https%3A%2F%2Ffonts.googleapis.com%2Fcss%3Ffamily%3DArchitects%2BDaughter;fontSize=16;exitX=0.5;exitY=1;exitDx=0;exitDy=0;entryX=0.517;entryY=0;entryDx=0;entryDy=0;entryPerimeter=0;labelBackgroundColor=none;strokeColor=#B20000;fontColor=default;fillColor=#e51400;strokeWidth=2;" edge="1" parent="1" source="CkCthznzlvCeSbrIngi4-19" target="CkCthznzlvCeSbrIngi4-19">
          <mxGeometry width="50" height="50" relative="1" as="geometry">
            <mxPoint x="950" y="360" as="sourcePoint" />
            <mxPoint x="1000" y="310" as="targetPoint" />
            <Array as="points">
              <mxPoint x="850" y="520" />
              <mxPoint x="800" y="100" />
            </Array>
          </mxGeometry>
        </mxCell>
      </root>
    </mxGraphModel>
  </diagram>
</mxfile>
